<svg width="192" height="192" viewBox="0 0 192 192" xmlns="http://www.w3.org/2000/svg">
  <defs>
    <linearGradient id="bg" x1="0%" y1="0%" x2="100%" y2="100%">
      <stop offset="0%" style="stop-color:#3f51b5"/>
      <stop offset="100%" style="stop-color:#1976d2"/>
    </linearGradient>
    <linearGradient id="accent" x1="0%" y1="0%" x2="100%" y2="100%">
      <stop offset="0%" style="stop-color:#ff6b6b"/>
      <stop offset="100%" style="stop-color:#ff9e9e"/>
    </linearGradient>
  </defs>
  
  <!-- Background -->
  <rect width="192" height="192" rx="32" fill="url(#bg)"/>
  
  <!-- Main content centered -->
  <g transform="translate(96, 96)">
    <!-- Book symbol -->
    <path d="M-30,-15 L-30,25 Q-30,30 -25,30 L-5,30 Q0,27 0,25 L0,-15 Q0,-20 -5,-20 L-25,-20 Q-30,-20 -30,-15 Z" 
          fill="white" opacity="0.95"/>
    <path d="M30,-15 L30,25 Q30,30 25,30 L5,30 Q0,27 0,25 L0,-15 Q0,-20 5,-20 L25,-20 Q30,-20 30,-15 Z" 
          fill="white" opacity="0.95"/>
    
    <!-- Excellence star -->
    <path d="M0,-35 L4,-25 L14,-25 L6,-18 L10,-8 L0,-13 L-10,-8 L-6,-18 L-14,-25 L-4,-25 Z" 
          fill="#ffd700"/>
    
    <!-- ECH text -->
    <text x="0" y="50" fill="white" font-family="Arial, sans-serif" font-weight="bold" 
          font-size="16" text-anchor="middle" dominant-baseline="middle">ECH</text>
  </g>
</svg>